<svg width="36" height="36" viewBox="0 0 36 36" fill="none" xmlns="http://www.w3.org/2000/svg">
<path d="M30.9375 20.875C30.9375 19.9311 30.7516 18.9965 30.3904 18.1245C30.0292 17.2524 29.4998 16.4601 28.8323 15.7927C28.1649 15.1252 27.3726 14.5958 26.5005 14.2346C25.6285 13.8734 24.6939 13.6875 23.75 13.6875" stroke="#40B1DE" stroke-width="2.875" stroke-linejoin="round"/>
<rect x="20.875" y="7.9375" width="5.75" height="5.75" rx="2.875" stroke="#40B1DE" stroke-width="2.875" stroke-linejoin="round"/>
<path d="M5.0625 20.875C5.0625 19.9311 5.24841 18.9965 5.60962 18.1245C5.97082 17.2524 6.50025 16.4601 7.16767 15.7927C7.83509 15.1252 8.62744 14.5958 9.49946 14.2346C10.3715 13.8734 11.3061 13.6875 12.25 13.6875" stroke="#40B1DE" stroke-width="2.875" stroke-linejoin="round"/>
<rect width="5.75" height="5.75" rx="2.875" transform="matrix(-1 0 0 1 15.125 7.9375)" stroke="#40B1DE" stroke-width="2.875" stroke-linejoin="round"/>
<path d="M10.8125 30.9375C10.8125 29.9936 10.9984 29.059 11.3596 28.187C11.7208 27.3149 12.2502 26.5226 12.9177 25.8552C13.5851 25.1877 14.3774 24.6583 15.2495 24.2971C16.1215 23.9359 17.0561 23.75 18 23.75C18.9439 23.75 19.8785 23.9359 20.7505 24.2971C21.6226 24.6583 22.4149 25.1878 23.0823 25.8552C23.7498 26.5226 24.2792 27.3149 24.6404 28.187C25.0016 29.059 25.1875 29.9936 25.1875 30.9375" stroke="#40B1DE" stroke-width="2.875" stroke-linejoin="round"/>
<rect x="15.125" y="16.5625" width="5.75" height="5.75" rx="2.875" stroke="#40B1DE" stroke-width="2.875" stroke-linejoin="round"/>
</svg>
