<svg width="36" height="36" viewBox="0 0 36 36" fill="none" xmlns="http://www.w3.org/2000/svg">
<path d="M28.0625 12.25L28.0625 29.5" stroke="#40B1DE" stroke-width="2.875" stroke-linejoin="round"/>
<path d="M30.9375 9.375C30.9375 8.99745 30.8631 8.6236 30.7187 8.27478C30.5742 7.92597 30.3624 7.60904 30.0954 7.34207C29.8285 7.0751 29.5115 6.86333 29.1627 6.71885C28.8139 6.57436 28.4401 6.5 28.0625 6.5C27.6849 6.5 27.3111 6.57436 26.9623 6.71885C26.6135 6.86333 26.2965 7.0751 26.0296 7.34207C25.7626 7.60904 25.5508 7.92597 25.4063 8.27479C25.2619 8.6236 25.1875 8.99745 25.1875 9.375C25.1875 9.75255 25.2619 10.1264 25.4063 10.4752C25.5508 10.824 25.7626 11.141 26.0296 11.4079C26.2965 11.6749 26.6135 11.8867 26.9623 12.0312C27.3111 12.1756 27.685 12.25 28.0625 12.25C28.4401 12.25 28.8139 12.1756 29.1627 12.0312C29.5115 11.8867 29.8285 11.6749 30.0954 11.4079C30.3624 11.141 30.5742 10.824 30.7187 10.4752C30.8631 10.1264 30.9375 9.75255 30.9375 9.375L30.9375 9.375Z" stroke="#40B1DE" stroke-width="2.875" stroke-linejoin="round"/>
<path d="M18 5.0625L18 15.125" stroke="#40B1DE" stroke-width="2.875" stroke-linejoin="round"/>
<path d="M18 19.4375L18 29.5" stroke="#40B1DE" stroke-width="2.875" stroke-linejoin="round"/>
<path d="M20.875 18C20.875 17.6224 20.8006 17.2486 20.6562 16.8998C20.5117 16.551 20.2999 16.234 20.0329 15.9671C19.766 15.7001 19.449 15.4883 19.1002 15.3438C18.7514 15.1994 18.3776 15.125 18 15.125C17.6224 15.125 17.2486 15.1994 16.8998 15.3438C16.551 15.4883 16.234 15.7001 15.9671 15.9671C15.7001 16.234 15.4883 16.551 15.3438 16.8998C15.1994 17.2486 15.125 17.6224 15.125 18C15.125 18.3776 15.1994 18.7514 15.3438 19.1002C15.4883 19.449 15.7001 19.766 15.9671 20.0329C16.234 20.2999 16.551 20.5117 16.8998 20.6562C17.2486 20.8006 17.6225 20.875 18 20.875C18.3776 20.875 18.7514 20.8006 19.1002 20.6562C19.449 20.5117 19.766 20.2999 20.0329 20.0329C20.2999 19.766 20.5117 19.449 20.6562 19.1002C20.8006 18.7514 20.875 18.3775 20.875 18L20.875 18Z" stroke="#40B1DE" stroke-width="2.875" stroke-linejoin="round"/>
<path d="M7.9375 5.0625L7.9375 23.75" stroke="#40B1DE" stroke-width="2.875" stroke-linejoin="round"/>
<path d="M10.8125 26.625C10.8125 26.2474 10.7381 25.8736 10.5937 25.5248C10.4492 25.176 10.2374 24.859 9.97043 24.5921C9.70346 24.3251 9.38653 24.1133 9.03772 23.9688C8.6889 23.8244 8.31505 23.75 7.9375 23.75C7.55995 23.75 7.1861 23.8244 6.83729 23.9688C6.48847 24.1133 6.17154 24.3251 5.90457 24.5921C5.6376 24.859 5.42583 25.176 5.28135 25.5248C5.13686 25.8736 5.0625 26.2474 5.0625 26.625C5.0625 27.0026 5.13686 27.3764 5.28135 27.7252C5.42583 28.074 5.6376 28.391 5.90457 28.6579C6.17154 28.9249 6.48847 29.1367 6.83729 29.2812C7.1861 29.4256 7.55995 29.5 7.9375 29.5C8.31505 29.5 8.6889 29.4256 9.03772 29.2812C9.38653 29.1367 9.70346 28.9249 9.97043 28.6579C10.2374 28.391 10.4492 28.074 10.5937 27.7252C10.7381 27.3764 10.8125 27.0025 10.8125 26.625L10.8125 26.625Z" stroke="#40B1DE" stroke-width="2.875" stroke-linejoin="round"/>
</svg>
