<svg width="36" height="36" viewBox="0 0 36 36" fill="none" xmlns="http://www.w3.org/2000/svg">
<path d="M5.0625 30.9375C5.0625 29.2385 5.39714 27.5562 6.04731 25.9865C6.69748 24.4169 7.65045 22.9907 8.85181 21.7893C10.0532 20.5879 11.4794 19.635 13.049 18.9848C14.6187 18.3346 16.301 18 18 18C19.699 18 21.3813 18.3346 22.951 18.9848C24.5206 19.635 25.9468 20.588 27.1482 21.7893C28.3496 22.9907 29.3025 24.4169 29.9527 25.9865C30.6029 27.5562 30.9375 29.2385 30.9375 30.9375" stroke="#40B1DE" stroke-width="2.875" stroke-linejoin="round"/>
<rect x="12.25" y="6.5" width="11.5" height="11.5" rx="5.75" stroke="#40B1DE" stroke-width="2.875" stroke-linejoin="round"/>
<path d="M18 25.1875L18 30.9375" stroke="#40B1DE" stroke-width="2.875" stroke-linejoin="round"/>
<path d="M23.75 19.4375C23.75 20.9625 23.1442 22.425 22.0659 23.5034C20.9875 24.5817 19.525 25.1875 18 25.1875C16.475 25.1875 15.0125 24.5817 13.9341 23.5034C12.8558 22.425 12.25 20.9625 12.25 19.4375" stroke="#40B1DE" stroke-width="2.875" stroke-linejoin="round"/>
<path d="M12.25 10.8125H23.75" stroke="#40B1DE" stroke-width="2.875" stroke-linejoin="round"/>
</svg>
