<svg width="35" height="51" viewBox="0 0 35 51" fill="none" xmlns="http://www.w3.org/2000/svg">
<path d="M12.3333 2V0C11.2288 0 10.3333 0.89543 10.3333 2L12.3333 2ZM22.6667 2H24.6667C24.6667 0.89543 23.7712 0 22.6667 0V2ZM12.3333 18.382L12.9998 20.2677C13.799 19.9852 14.3333 19.2296 14.3333 18.382H12.3333ZM22.6667 18.382H20.6667C20.6667 19.2296 21.201 19.9852 22.0002 20.2677L22.6667 18.382ZM12.3333 4H22.6667V0H12.3333V4ZM14.3333 18.382V2H10.3333V18.382H14.3333ZM4 33C4 27.1251 7.75376 22.1219 12.9998 20.2677L11.6668 16.4963C4.87258 18.8977 0 25.3773 0 33H4ZM17.5 46.5C10.0442 46.5 4 40.4558 4 33H0C0 42.665 7.83502 50.5 17.5 50.5V46.5ZM31 33C31 40.4558 24.9558 46.5 17.5 46.5V50.5C27.165 50.5 35 42.665 35 33H31ZM22.0002 20.2677C27.2462 22.1219 31 27.1251 31 33H35C35 25.3773 30.1274 18.8977 23.3332 16.4963L22.0002 20.2677ZM20.6667 2V18.382H24.6667V2H20.6667Z" fill="#40B1DE"/>
</svg>
