<svg width="30" height="37" viewBox="0 0 30 37" fill="none" xmlns="http://www.w3.org/2000/svg">
<path d="M18.1052 19.7896C18.1052 22.2604 16.1023 24.2633 13.6315 24.2633C11.1608 24.2633 9.15784 22.2604 9.15784 19.7896C9.15784 17.3189 11.1608 15.3159 13.6315 15.3159C16.1023 15.3159 18.1052 17.3189 18.1052 19.7896Z" stroke="#40B1DE" stroke-width="4" stroke-linejoin="round"/>
<path d="M16.3158 22.4736L21.6842 27.8421" stroke="#40B1DE" stroke-width="4" stroke-linejoin="round"/>
<path d="M27.0526 27.8422V14.2478C27.0526 12.6224 26.4995 11.0455 25.4841 9.77627L22.0439 5.47594C20.6855 3.77798 18.6289 2.78955 16.4545 2.78955H9.1579C5.2047 2.78955 2 5.99426 2 9.94745V27.8422C2 31.7954 5.2047 35.0001 9.1579 35.0001H19.8947C23.8479 35.0001 27.0526 31.7954 27.0526 27.8422Z" stroke="#40B1DE" stroke-width="4" stroke-linejoin="round"/>
<path d="M26.1579 11.0176C25.1344 11.6085 23.9446 11.8452 22.7729 11.6909C21.6013 11.5367 20.5132 11.0001 19.6776 10.1645C18.842 9.32883 18.3054 8.2408 18.1512 7.06914C17.9969 5.89748 18.2336 4.70766 18.8245 3.68421" stroke="#40B1DE" stroke-width="4" stroke-linejoin="round"/>
</svg>
