<svg width="47" height="50" viewBox="0 0 47 50" fill="none" xmlns="http://www.w3.org/2000/svg">
<path d="M6.60612 24.2653L2.64471 14.3618C2.21882 13.297 2 12.1608 2 11.0141C2 6.03573 6.03573 2 11.0141 2H12.0979C14.2362 2 16.2869 2.84944 17.799 4.36145C20.9476 7.51005 26.0524 7.51005 29.201 4.36145C30.7131 2.84944 32.7638 2 34.9021 2H35.9859C40.9643 2 45 6.03573 45 11.0141C45 12.1608 44.7812 13.297 44.3553 14.3618L40.3939 24.2653C39.886 25.5351 39.625 26.8902 39.625 28.2578V43.0021C39.625 45.5898 37.5273 47.6875 34.9396 47.6875C32.9228 47.6875 31.1323 46.397 30.4946 44.4837L27.0374 34.1121C26.5298 32.5895 25.1049 31.5625 23.5 31.5625C21.8951 31.5625 20.4702 32.5895 19.9626 34.1121L16.5054 44.4837C15.8677 46.397 14.0772 47.6875 12.0604 47.6875C9.47274 47.6875 7.375 45.5898 7.375 43.0021V28.2578C7.375 26.8902 7.11404 25.5351 6.60612 24.2653Z" stroke="#40B1DE" stroke-width="4" stroke-linejoin="round"/>
<circle cx="23.5" cy="20.8125" r="2.6875" fill="#40B1DE"/>
<circle cx="12.75" cy="15.4375" r="2.6875" fill="#40B1DE"/>
<circle cx="34.25" cy="15.4375" r="2.6875" fill="#40B1DE"/>
</svg>
