<svg width="41" height="44" viewBox="0 0 41 44" fill="none" xmlns="http://www.w3.org/2000/svg">
<path d="M11.6667 17.4583C11.6667 16.8783 11.5525 16.304 11.3305 15.7681C11.1086 15.2323 10.7832 14.7454 10.3731 14.3353C9.96297 13.9252 9.47608 13.5998 8.94023 13.3779C8.40437 13.1559 7.83005 13.0417 7.25004 13.0417C6.67004 13.0417 6.09571 13.1559 5.55986 13.3779C5.024 13.5998 4.53711 13.9252 4.12699 14.3353C3.71686 14.7454 3.39153 15.2323 3.16957 15.7681C2.94761 16.304 2.83337 16.8783 2.83337 17.4583C2.83337 18.0383 2.94761 18.6127 3.16957 19.1485C3.39153 19.6844 3.71686 20.1713 4.12699 20.5814C4.53711 20.9915 5.024 21.3168 5.55986 21.5388C6.09571 21.7608 6.67004 21.875 7.25004 21.875C7.83005 21.875 8.40437 21.7608 8.94023 21.5388C9.47608 21.3168 9.96297 20.9915 10.3731 20.5814C10.7832 20.1713 11.1086 19.6844 11.3305 19.1485C11.5525 18.6127 11.6667 18.0383 11.6667 17.4583L11.6667 17.4583Z" stroke="#40B1DE" stroke-width="4" stroke-linejoin="round"/>
<path d="M7.25 21.875V30.7083C7.25 36.8065 12.1935 41.75 18.2917 41.75V41.75C24.3898 41.75 29.3333 36.8065 29.3333 30.7083V24.0833" stroke="#40B1DE" stroke-width="4" stroke-linejoin="round"/>
<path d="M27.125 2V2C23.4661 2 20.5 4.96611 20.5 8.625V15.25C20.5 20.1285 24.4548 24.0833 29.3333 24.0833V24.0833C34.2118 24.0833 38.1667 20.1285 38.1667 15.25V8.62501C38.1667 4.96612 35.2006 2 31.5417 2V2" stroke="#40B1DE" stroke-width="4" stroke-linejoin="round"/>
</svg>
