<svg width="46" height="63" viewBox="0 0 46 63" fill="none" xmlns="http://www.w3.org/2000/svg">
<path d="M2 41.6665C2 38.9087 2.54318 36.178 3.59853 33.6301C4.65388 31.0823 6.20073 28.7673 8.15076 26.8173C10.1008 24.8672 12.4158 23.3204 14.9637 22.265C17.5115 21.2097 20.2422 20.6665 23 20.6665C25.7578 20.6665 28.4885 21.2097 31.0364 22.265C33.5842 23.3204 35.8992 24.8672 37.8493 26.8173C39.7993 28.7673 41.3461 31.0823 42.4015 33.6302C43.4568 36.178 44 38.9088 44 41.6665" stroke="#40B1DE" stroke-width="4" stroke-linejoin="round"/>
<rect x="13.6666" y="2" width="18.6667" height="18.6667" rx="9.33333" stroke="#40B1DE" stroke-width="4" stroke-linejoin="round"/>
<path d="M16 34.6665H30" stroke="#40B1DE" stroke-width="4" stroke-linejoin="round"/>
<path d="M23 27.6665L23 41.6665" stroke="#40B1DE" stroke-width="4" stroke-linejoin="round"/>
</svg>
