<svg width="38" height="38" viewBox="0 0 38 38" fill="none" xmlns="http://www.w3.org/2000/svg">
<path d="M4.9375 33.0625C4.9375 31.2158 5.30124 29.3872 6.00794 27.681C6.71465 25.9749 7.75049 24.4246 9.05631 23.1188C10.3621 21.813 11.9124 20.7771 13.6185 20.0704C15.3247 19.3637 17.1533 19 19 19C20.8467 19 22.6754 19.3637 24.3815 20.0704C26.0876 20.7772 27.6379 21.813 28.9437 23.1188C30.2495 24.4246 31.2854 25.9749 31.9921 27.681C32.6988 29.3872 33.0625 31.2158 33.0625 33.0625" stroke="#40B1DE" stroke-width="3.125" stroke-linejoin="round"/>
<rect x="12.75" y="6.5" width="12.5" height="12.5" rx="6.25" stroke="#40B1DE" stroke-width="3.125" stroke-linejoin="round"/>
<path d="M19 26.8125L19 33.0625" stroke="#40B1DE" stroke-width="3.125" stroke-linejoin="round"/>
<path d="M25.25 20.5625C25.25 22.2201 24.5915 23.8098 23.4194 24.9819C22.2473 26.154 20.6576 26.8125 19 26.8125C17.3424 26.8125 15.7527 26.154 14.5806 24.9819C13.4085 23.8098 12.75 22.2201 12.75 20.5625" stroke="#40B1DE" stroke-width="3.125" stroke-linejoin="round"/>
<path d="M12.75 11.1875H25.25" stroke="#40B1DE" stroke-width="3.125" stroke-linejoin="round"/>
</svg>
