<svg width="38" height="38" viewBox="0 0 38 38" fill="none" xmlns="http://www.w3.org/2000/svg">
<path d="M29.9375 12.75L29.9375 31.5" stroke="#40B1DE" stroke-width="3.125" stroke-linejoin="round"/>
<path d="M33.0625 9.625C33.0625 9.21462 32.9817 8.80826 32.8246 8.42911C32.6676 8.04997 32.4374 7.70547 32.1472 7.41529C31.857 7.12511 31.5125 6.89492 31.1334 6.73788C30.7542 6.58083 30.3479 6.5 29.9375 6.5C29.5271 6.5 29.1208 6.58083 28.7416 6.73788C28.3625 6.89492 28.018 7.12511 27.7278 7.41529C27.4376 7.70547 27.2074 8.04997 27.0504 8.42911C26.8933 8.80826 26.8125 9.21462 26.8125 9.625C26.8125 10.0354 26.8933 10.4417 27.0504 10.8209C27.2074 11.2 27.4376 11.5445 27.7278 11.8347C28.018 12.1249 28.3625 12.3551 28.7416 12.5121C29.1208 12.6692 29.5271 12.75 29.9375 12.75C30.3479 12.75 30.7542 12.6692 31.1334 12.5121C31.5125 12.3551 31.857 12.1249 32.1472 11.8347C32.4374 11.5445 32.6676 11.2 32.8246 10.8209C32.9817 10.4417 33.0625 10.0354 33.0625 9.625L33.0625 9.625Z" stroke="#40B1DE" stroke-width="3.125" stroke-linejoin="round"/>
<path d="M19 4.9375L19 15.875" stroke="#40B1DE" stroke-width="3.125" stroke-linejoin="round"/>
<path d="M19 20.5625L19 31.5" stroke="#40B1DE" stroke-width="3.125" stroke-linejoin="round"/>
<path d="M22.125 19C22.125 18.5896 22.0442 18.1833 21.8871 17.8041C21.7301 17.425 21.4999 17.0805 21.2097 16.7903C20.9195 16.5001 20.575 16.2699 20.1959 16.1129C19.8167 15.9558 19.4104 15.875 19 15.875C18.5896 15.875 18.1833 15.9558 17.8041 16.1129C17.425 16.2699 17.0805 16.5001 16.7903 16.7903C16.5001 17.0805 16.2699 17.425 16.1129 17.8041C15.9558 18.1833 15.875 18.5896 15.875 19C15.875 19.4104 15.9558 19.8167 16.1129 20.1959C16.2699 20.575 16.5001 20.9195 16.7903 21.2097C17.0805 21.4999 17.425 21.7301 17.8041 21.8871C18.1833 22.0442 18.5896 22.125 19 22.125C19.4104 22.125 19.8167 22.0442 20.1959 21.8871C20.575 21.7301 20.9195 21.4999 21.2097 21.2097C21.4999 20.9195 21.7301 20.575 21.8871 20.1959C22.0442 19.8167 22.125 19.4104 22.125 19L22.125 19Z" stroke="#40B1DE" stroke-width="3.125" stroke-linejoin="round"/>
<path d="M8.0625 4.9375L8.0625 25.25" stroke="#40B1DE" stroke-width="3.125" stroke-linejoin="round"/>
<path d="M11.1875 28.375C11.1875 27.9646 11.1067 27.5583 10.9496 27.1791C10.7926 26.8 10.5624 26.4555 10.2722 26.1653C9.98203 25.8751 9.63753 25.6449 9.25839 25.4879C8.87924 25.3308 8.47288 25.25 8.0625 25.25C7.65212 25.25 7.24576 25.3308 6.86661 25.4879C6.48747 25.6449 6.14297 25.8751 5.85279 26.1653C5.56261 26.4555 5.33242 26.8 5.17538 27.1791C5.01833 27.5583 4.9375 27.9646 4.9375 28.375C4.9375 28.7854 5.01833 29.1917 5.17538 29.5709C5.33242 29.95 5.56261 30.2945 5.85279 30.5847C6.14297 30.8749 6.48747 31.1051 6.86661 31.2621C7.24576 31.4192 7.65212 31.5 8.0625 31.5C8.47288 31.5 8.87924 31.4192 9.25839 31.2621C9.63753 31.1051 9.98203 30.8749 10.2722 30.5847C10.5624 30.2945 10.7926 29.95 10.9496 29.5709C11.1067 29.1917 11.1875 28.7854 11.1875 28.375L11.1875 28.375Z" stroke="#40B1DE" stroke-width="3.125" stroke-linejoin="round"/>
</svg>
